<?xml version="1.0" standalone="no"?>
<!DOCTYPE svg PUBLIC "-//W3C//DTD SVG 20010904//EN"
 "http://www.w3.org/TR/2001/REC-SVG-20010904/DTD/svg10.dtd">
<svg version="1.0" xmlns="http://www.w3.org/2000/svg"
 width="282.000000pt" height="282.000000pt" viewBox="0 0 282.000000 282.000000"
 preserveAspectRatio="xMidYMid meet">
<metadata>
Created by potrace 1.14, written by Peter Selinger 2001-2017
</metadata>
<g transform="translate(0.000000,282.000000) scale(0.100000,-0.100000)"
fill="#000000" stroke="none">
<path d="M1235 2800 c-22 -4 -56 -10 -75 -13 -245 -34 -542 -190 -738 -388
-113 -112 -105 -104 -177 -209 -185 -271 -267 -605 -231 -937 6 -54 9 -72 20
-130 80 -397 367 -772 731 -956 134 -67 294 -120 430 -142 98 -16 340 -13 447
6 572 99 1017 521 1139 1082 62 284 36 571 -76 837 -131 309 -362 557 -660
707 -124 63 -204 91 -360 125 -98 21 -377 32 -450 18z"/>
</g>
</svg>
